<svg class="railroad-diagram" height="722" viewBox="0 0 148.5 722" width="148.5" xmlns="http://www.w3.org/2000/svg" xmlns:xlink="http://www.w3.org/1999/xlink"> <g transform="translate(.5 .5)"> <style>/* <![CDATA[ */ 	svg.railroad-diagram { 		background-color:hsl(30,20%,95%); 	} 	svg.railroad-diagram path { 		stroke-width:3; 		stroke:black; 		fill:rgba(0,0,0,0); 	} 	svg.railroad-diagram text { 		font:bold 14px monospace; 		text-anchor:middle; 	} 	svg.railroad-diagram text.label{ 		text-anchor:start; 	} 	svg.railroad-diagram text.comment{ 		font:italic 12px monospace; 	} 	svg.railroad-diagram rect{ 		stroke-width:3; 		stroke:black; 		fill:hsl(120,100%,90%); 	} 	svg.railroad-diagram rect.group-box { 		stroke: gray; 		stroke-dasharray: 10 5; 		fill: none; 	}  /* ]]> */ </style><g> <path d="M20 21v20m10 -20v20m-10 -10h20"></path></g><g> <path d="M40 31h0.0"></path><path d="M108.5 31h0.0"></path><path d="M40.0 31h20"></path><g class="terminal "> <path d="M60.0 31h0.0"></path><path d="M88.5 31h0.0"></path><rect height="22" rx="10" ry="10" width="28.5" x="60.0" y="20"></rect><text x="74.25" y="35">A</text></g><path d="M88.5 31h20"></path><path d="M40.0 31a10 10 0 0 1 10 10v10a10 10 0 0 0 10 10"></path><g class="terminal "> <path d="M60.0 61h0.0"></path><path d="M88.5 61h0.0"></path><rect height="22" rx="10" ry="10" width="28.5" x="60.0" y="50"></rect><text x="74.25" y="65">C</text></g><path d="M88.5 61a10 10 0 0 0 10 -10v-10a10 10 0 0 1 10 -10"></path><path d="M40.0 31a10 10 0 0 1 10 10v40a10 10 0 0 0 10 10"></path><g class="terminal "> <path d="M60.0 91h0.0"></path><path d="M88.5 91h0.0"></path><rect height="22" rx="10" ry="10" width="28.5" x="60.0" y="80"></rect><text x="74.25" y="95">D</text></g><path d="M88.5 91a10 10 0 0 0 10 -10v-40a10 10 0 0 1 10 -10"></path><path d="M40.0 31a10 10 0 0 1 10 10v70a10 10 0 0 0 10 10"></path><g class="terminal "> <path d="M60.0 121h0.0"></path><path d="M88.5 121h0.0"></path><rect height="22" rx="10" ry="10" width="28.5" x="60.0" y="110"></rect><text x="74.25" y="125">E</text></g><path d="M88.5 121a10 10 0 0 0 10 -10v-70a10 10 0 0 1 10 -10"></path><path d="M40.0 31a10 10 0 0 1 10 10v100a10 10 0 0 0 10 10"></path><g class="terminal "> <path d="M60.0 151h0.0"></path><path d="M88.5 151h0.0"></path><rect height="22" rx="10" ry="10" width="28.5" x="60.0" y="140"></rect><text x="74.25" y="155">F</text></g><path d="M88.5 151a10 10 0 0 0 10 -10v-100a10 10 0 0 1 10 -10"></path><path d="M40.0 31a10 10 0 0 1 10 10v130a10 10 0 0 0 10 10"></path><g class="terminal "> <path d="M60.0 181h0.0"></path><path d="M88.5 181h0.0"></path><rect height="22" rx="10" ry="10" width="28.5" x="60.0" y="170"></rect><text x="74.25" y="185">G</text></g><path d="M88.5 181a10 10 0 0 0 10 -10v-130a10 10 0 0 1 10 -10"></path><path d="M40.0 31a10 10 0 0 1 10 10v160a10 10 0 0 0 10 10"></path><g class="terminal "> <path d="M60.0 211h0.0"></path><path d="M88.5 211h0.0"></path><rect height="22" rx="10" ry="10" width="28.5" x="60.0" y="200"></rect><text x="74.25" y="215">H</text></g><path d="M88.5 211a10 10 0 0 0 10 -10v-160a10 10 0 0 1 10 -10"></path><path d="M40.0 31a10 10 0 0 1 10 10v190a10 10 0 0 0 10 10"></path><g class="terminal "> <path d="M60.0 241h0.0"></path><path d="M88.5 241h0.0"></path><rect height="22" rx="10" ry="10" width="28.5" x="60.0" y="230"></rect><text x="74.25" y="245">I</text></g><path d="M88.5 241a10 10 0 0 0 10 -10v-190a10 10 0 0 1 10 -10"></path><path d="M40.0 31a10 10 0 0 1 10 10v220a10 10 0 0 0 10 10"></path><g class="terminal "> <path d="M60.0 271h0.0"></path><path d="M88.5 271h0.0"></path><rect height="22" rx="10" ry="10" width="28.5" x="60.0" y="260"></rect><text x="74.25" y="275">J</text></g><path d="M88.5 271a10 10 0 0 0 10 -10v-220a10 10 0 0 1 10 -10"></path><path d="M40.0 31a10 10 0 0 1 10 10v250a10 10 0 0 0 10 10"></path><g class="terminal "> <path d="M60.0 301h0.0"></path><path d="M88.5 301h0.0"></path><rect height="22" rx="10" ry="10" width="28.5" x="60.0" y="290"></rect><text x="74.25" y="305">K</text></g><path d="M88.5 301a10 10 0 0 0 10 -10v-250a10 10 0 0 1 10 -10"></path><path d="M40.0 31a10 10 0 0 1 10 10v280a10 10 0 0 0 10 10"></path><g class="terminal "> <path d="M60.0 331h0.0"></path><path d="M88.5 331h0.0"></path><rect height="22" rx="10" ry="10" width="28.5" x="60.0" y="320"></rect><text x="74.25" y="335">L</text></g><path d="M88.5 331a10 10 0 0 0 10 -10v-280a10 10 0 0 1 10 -10"></path><path d="M40.0 31a10 10 0 0 1 10 10v310a10 10 0 0 0 10 10"></path><g class="terminal "> <path d="M60.0 361h0.0"></path><path d="M88.5 361h0.0"></path><rect height="22" rx="10" ry="10" width="28.5" x="60.0" y="350"></rect><text x="74.25" y="365">M</text></g><path d="M88.5 361a10 10 0 0 0 10 -10v-310a10 10 0 0 1 10 -10"></path><path d="M40.0 31a10 10 0 0 1 10 10v340a10 10 0 0 0 10 10"></path><g class="terminal "> <path d="M60.0 391h0.0"></path><path d="M88.5 391h0.0"></path><rect height="22" rx="10" ry="10" width="28.5" x="60.0" y="380"></rect><text x="74.25" y="395">N</text></g><path d="M88.5 391a10 10 0 0 0 10 -10v-340a10 10 0 0 1 10 -10"></path><path d="M40.0 31a10 10 0 0 1 10 10v370a10 10 0 0 0 10 10"></path><g class="terminal "> <path d="M60.0 421h0.0"></path><path d="M88.5 421h0.0"></path><rect height="22" rx="10" ry="10" width="28.5" x="60.0" y="410"></rect><text x="74.25" y="425">P</text></g><path d="M88.5 421a10 10 0 0 0 10 -10v-370a10 10 0 0 1 10 -10"></path><path d="M40.0 31a10 10 0 0 1 10 10v400a10 10 0 0 0 10 10"></path><g class="terminal "> <path d="M60.0 451h0.0"></path><path d="M88.5 451h0.0"></path><rect height="22" rx="10" ry="10" width="28.5" x="60.0" y="440"></rect><text x="74.25" y="455">Q</text></g><path d="M88.5 451a10 10 0 0 0 10 -10v-400a10 10 0 0 1 10 -10"></path><path d="M40.0 31a10 10 0 0 1 10 10v430a10 10 0 0 0 10 10"></path><g class="terminal "> <path d="M60.0 481h0.0"></path><path d="M88.5 481h0.0"></path><rect height="22" rx="10" ry="10" width="28.5" x="60.0" y="470"></rect><text x="74.25" y="485">R</text></g><path d="M88.5 481a10 10 0 0 0 10 -10v-430a10 10 0 0 1 10 -10"></path><path d="M40.0 31a10 10 0 0 1 10 10v460a10 10 0 0 0 10 10"></path><g class="terminal "> <path d="M60.0 511h0.0"></path><path d="M88.5 511h0.0"></path><rect height="22" rx="10" ry="10" width="28.5" x="60.0" y="500"></rect><text x="74.25" y="515">S</text></g><path d="M88.5 511a10 10 0 0 0 10 -10v-460a10 10 0 0 1 10 -10"></path><path d="M40.0 31a10 10 0 0 1 10 10v490a10 10 0 0 0 10 10"></path><g class="terminal "> <path d="M60.0 541h0.0"></path><path d="M88.5 541h0.0"></path><rect height="22" rx="10" ry="10" width="28.5" x="60.0" y="530"></rect><text x="74.25" y="545">T</text></g><path d="M88.5 541a10 10 0 0 0 10 -10v-490a10 10 0 0 1 10 -10"></path><path d="M40.0 31a10 10 0 0 1 10 10v520a10 10 0 0 0 10 10"></path><g class="terminal "> <path d="M60.0 571h0.0"></path><path d="M88.5 571h0.0"></path><rect height="22" rx="10" ry="10" width="28.5" x="60.0" y="560"></rect><text x="74.25" y="575">V</text></g><path d="M88.5 571a10 10 0 0 0 10 -10v-520a10 10 0 0 1 10 -10"></path><path d="M40.0 31a10 10 0 0 1 10 10v550a10 10 0 0 0 10 10"></path><g class="terminal "> <path d="M60.0 601h0.0"></path><path d="M88.5 601h0.0"></path><rect height="22" rx="10" ry="10" width="28.5" x="60.0" y="590"></rect><text x="74.25" y="605">W</text></g><path d="M88.5 601a10 10 0 0 0 10 -10v-550a10 10 0 0 1 10 -10"></path><path d="M40.0 31a10 10 0 0 1 10 10v580a10 10 0 0 0 10 10"></path><g class="terminal "> <path d="M60.0 631h0.0"></path><path d="M88.5 631h0.0"></path><rect height="22" rx="10" ry="10" width="28.5" x="60.0" y="620"></rect><text x="74.25" y="635">Y</text></g><path d="M88.5 631a10 10 0 0 0 10 -10v-580a10 10 0 0 1 10 -10"></path><path d="M40.0 31a10 10 0 0 1 10 10v610a10 10 0 0 0 10 10"></path><g class="terminal "> <path d="M60.0 661h0.0"></path><path d="M88.5 661h0.0"></path><rect height="22" rx="10" ry="10" width="28.5" x="60.0" y="650"></rect><text x="74.25" y="665">U</text></g><path d="M88.5 661a10 10 0 0 0 10 -10v-610a10 10 0 0 1 10 -10"></path><path d="M40.0 31a10 10 0 0 1 10 10v640a10 10 0 0 0 10 10"></path><g class="terminal "> <path d="M60.0 691h0.0"></path><path d="M88.5 691h0.0"></path><rect height="22" rx="10" ry="10" width="28.5" x="60.0" y="680"></rect><text x="74.25" y="695">O</text></g><path d="M88.5 691a10 10 0 0 0 10 -10v-640a10 10 0 0 1 10 -10"></path></g><path d="M 108.5 31 h 20 m -10 -10 v 20 m 10 -20 v 20"></path></g></svg>