<svg class="railroad-diagram" height="80" viewBox="0 0 591.5 80" width="591.5" xmlns="http://www.w3.org/2000/svg" xmlns:xlink="http://www.w3.org/1999/xlink"> <g transform="translate(.5 .5)"> <style>/* <![CDATA[ */ 	svg.railroad-diagram { 		background-color:hsl(30,20%,95%); 	} 	svg.railroad-diagram path { 		stroke-width:3; 		stroke:black; 		fill:rgba(0,0,0,0); 	} 	svg.railroad-diagram text { 		font:bold 14px monospace; 		text-anchor:middle; 	} 	svg.railroad-diagram text.label{ 		text-anchor:start; 	} 	svg.railroad-diagram text.comment{ 		font:italic 12px monospace; 	} 	svg.railroad-diagram rect{ 		stroke-width:3; 		stroke:black; 		fill:hsl(120,100%,90%); 	} 	svg.railroad-diagram rect.group-box { 		stroke: gray; 		stroke-dasharray: 10 5; 		fill: none; 	}  /* ]]> */ </style><g> <path d="M20 30v20m10 -20v20m-10 -10h20"></path></g><path d="M40 40h10"></path><g> <path d="M50 40h0.0"></path><path d="M541.5 40h0.0"></path><g class="non-terminal "> <path d="M50.0 40h0.0"></path><path d="M214.5 40h0.0"></path><rect height="22" width="164.5" x="50.0" y="29"></rect><text x="132.25" y="44">UPPER&#95;CASE&#95;LETTER</text></g><path d="M214.5 40h10"></path><g> <path d="M224.5 40h0.0"></path><path d="M449.0 40h0.0"></path><path d="M224.5 40a10 10 0 0 0 10 -10v0a10 10 0 0 1 10 -10"></path><g> <path d="M244.5 20h184.5"></path></g><path d="M429.0 20a10 10 0 0 1 10 10v0a10 10 0 0 0 10 10"></path><path d="M224.5 40h20"></path><g> <path d="M244.5 40h0.0"></path><path d="M429.0 40h0.0"></path><path d="M244.5 40h10"></path><g class="non-terminal "> <path d="M254.5 40h0.0"></path><path d="M419.0 40h0.0"></path><rect height="22" width="164.5" x="254.5" y="29"></rect><text x="336.75" y="44">LOWER&#95;CASE&#95;LETTER</text></g><path d="M419.0 40h10"></path><path d="M254.5 40a10 10 0 0 0 -10 10v0a10 10 0 0 0 10 10"></path><g> <path d="M254.5 60h164.5"></path></g><path d="M419.0 60a10 10 0 0 0 10 -10v0a10 10 0 0 0 -10 -10"></path></g><path d="M429.0 40h20"></path></g><path d="M449.0 40h10"></path><g> <path d="M459.0 40h0.0"></path><path d="M541.5 40h0.0"></path><path d="M459.0 40h10"></path><g class="non-terminal "> <path d="M469.0 40h0.0"></path><path d="M531.5 40h0.0"></path><rect height="22" width="62.5" x="469.0" y="29"></rect><text x="500.25" y="44">DIGIT</text></g><path d="M531.5 40h10"></path><path d="M469.0 40a10 10 0 0 0 -10 10v0a10 10 0 0 0 10 10"></path><g> <path d="M469.0 60h62.5"></path></g><path d="M531.5 60a10 10 0 0 0 10 -10v0a10 10 0 0 0 -10 -10"></path></g></g><path d="M541.5 40h10"></path><path d="M 551.5 40 h 20 m -10 -10 v 20 m 10 -20 v 20"></path></g></svg>