<svg class="railroad-diagram" height="122" viewBox="0 0 284.5 122" width="284.5" xmlns="http://www.w3.org/2000/svg" xmlns:xlink="http://www.w3.org/1999/xlink"> <g transform="translate(.5 .5)"> <style>/* <![CDATA[ */ 	svg.railroad-diagram { 		background-color:hsl(30,20%,95%); 	} 	svg.railroad-diagram path { 		stroke-width:3; 		stroke:black; 		fill:rgba(0,0,0,0); 	} 	svg.railroad-diagram text { 		font:bold 14px monospace; 		text-anchor:middle; 	} 	svg.railroad-diagram text.label{ 		text-anchor:start; 	} 	svg.railroad-diagram text.comment{ 		font:italic 12px monospace; 	} 	svg.railroad-diagram rect{ 		stroke-width:3; 		stroke:black; 		fill:hsl(120,100%,90%); 	} 	svg.railroad-diagram rect.group-box { 		stroke: gray; 		stroke-dasharray: 10 5; 		fill: none; 	}  /* ]]> */ </style><g> <path d="M20 21v20m10 -20v20m-10 -10h20"></path></g><g> <path d="M40 31h0.0"></path><path d="M244.5 31h0.0"></path><path d="M40.0 31h20"></path><g class="non-terminal "> <path d="M60.0 31h51.0"></path><path d="M173.5 31h51.0"></path><rect height="22" width="62.5" x="111.0" y="20"></rect><text x="142.25" y="35">DIGIT</text></g><path d="M224.5 31h20"></path><path d="M40.0 31a10 10 0 0 1 10 10v10a10 10 0 0 0 10 10"></path><g class="non-terminal "> <path d="M60.0 61h0.0"></path><path d="M224.5 61h0.0"></path><rect height="22" width="164.5" x="60.0" y="50"></rect><text x="142.25" y="65">UPPER&#95;CASE&#95;LETTER</text></g><path d="M224.5 61a10 10 0 0 0 10 -10v-10a10 10 0 0 1 10 -10"></path><path d="M40.0 31a10 10 0 0 1 10 10v40a10 10 0 0 0 10 10"></path><g class="non-terminal "> <path d="M60.0 91h0.0"></path><path d="M224.5 91h0.0"></path><rect height="22" width="164.5" x="60.0" y="80"></rect><text x="142.25" y="95">LOWER&#95;CASE&#95;LETTER</text></g><path d="M224.5 91a10 10 0 0 0 10 -10v-40a10 10 0 0 1 10 -10"></path></g><path d="M 244.5 31 h 20 m -10 -10 v 20 m 10 -20 v 20"></path></g></svg>