<svg class="railroad-diagram" height="92" viewBox="0 0 148.5 92" width="148.5" xmlns="http://www.w3.org/2000/svg" xmlns:xlink="http://www.w3.org/1999/xlink"> <g transform="translate(.5 .5)"> <style>/* <![CDATA[ */ 	svg.railroad-diagram { 		background-color:hsl(30,20%,95%); 	} 	svg.railroad-diagram path { 		stroke-width:3; 		stroke:black; 		fill:rgba(0,0,0,0); 	} 	svg.railroad-diagram text { 		font:bold 14px monospace; 		text-anchor:middle; 	} 	svg.railroad-diagram text.label{ 		text-anchor:start; 	} 	svg.railroad-diagram text.comment{ 		font:italic 12px monospace; 	} 	svg.railroad-diagram rect{ 		stroke-width:3; 		stroke:black; 		fill:hsl(120,100%,90%); 	} 	svg.railroad-diagram rect.group-box { 		stroke: gray; 		stroke-dasharray: 10 5; 		fill: none; 	}  /* ]]> */ </style><g> <path d="M20 21v20m10 -20v20m-10 -10h20"></path></g><g> <path d="M40 31h0.0"></path><path d="M108.5 31h0.0"></path><path d="M40.0 31h20"></path><g class="terminal "> <path d="M60.0 31h0.0"></path><path d="M88.5 31h0.0"></path><rect height="22" rx="10" ry="10" width="28.5" x="60.0" y="20"></rect><text x="74.25" y="35">+</text></g><path d="M88.5 31h20"></path><path d="M40.0 31a10 10 0 0 1 10 10v10a10 10 0 0 0 10 10"></path><g class="terminal "> <path d="M60.0 61h0.0"></path><path d="M88.5 61h0.0"></path><rect height="22" rx="10" ry="10" width="28.5" x="60.0" y="50"></rect><text x="74.25" y="65">-</text></g><path d="M88.5 61a10 10 0 0 0 10 -10v-10a10 10 0 0 1 10 -10"></path></g><path d="M 108.5 31 h 20 m -10 -10 v 20 m 10 -20 v 20"></path></g></svg>